<svg width="15" height="17" viewBox="0 0 15 17" fill="none" xmlns="http://www.w3.org/2000/svg">
<path d="M7.5 0C11.6423 0 15 3.35775 15 7.5C15 11.6423 11.6423 15 7.5 15C3.35775 15 0 11.6423 0 7.5C0 3.35775 3.35775 0 7.5 0ZM7.5 3C7.30109 3 7.11032 3.07902 6.96967 3.21967C6.82902 3.36032 6.75 3.55109 6.75 3.75V7.5C6.75004 7.6989 6.82909 7.88963 6.96975 8.03025L9.21975 10.2802C9.3612 10.4169 9.55065 10.4925 9.7473 10.4908C9.94395 10.489 10.1321 10.4102 10.2711 10.2711C10.4102 10.1321 10.489 9.94395 10.4908 9.7473C10.4925 9.55065 10.4169 9.3612 10.2802 9.21975L8.25 7.1895V3.75C8.25 3.55109 8.17098 3.36032 8.03033 3.21967C7.88968 3.07902 7.69891 3 7.5 3Z" fill="#EB6535"/>
</svg>
