<svg width="11" height="15" viewBox="0 0 11 15" fill="none" xmlns="http://www.w3.org/2000/svg">
<path d="M5.25 7.125C4.75272 7.125 4.27581 6.92746 3.92417 6.57583C3.57254 6.22419 3.375 5.74728 3.375 5.25C3.375 4.75272 3.57254 4.27581 3.92417 3.92417C4.27581 3.57254 4.75272 3.375 5.25 3.375C5.74728 3.375 6.22419 3.57254 6.57583 3.92417C6.92746 4.27581 7.125 4.75272 7.125 5.25C7.125 5.49623 7.0765 5.74005 6.98227 5.96753C6.88805 6.19502 6.74994 6.40172 6.57583 6.57583C6.40172 6.74994 6.19502 6.88805 5.96753 6.98227C5.74005 7.0765 5.49623 7.125 5.25 7.125ZM5.25 0C3.85761 0 2.52226 0.553123 1.53769 1.53769C0.553123 2.52226 0 3.85761 0 5.25C0 9.1875 5.25 15 5.25 15C5.25 15 10.5 9.1875 10.5 5.25C10.5 3.85761 9.94688 2.52226 8.96231 1.53769C7.97774 0.553123 6.64239 0 5.25 0Z" fill="#EB6535"/>
</svg>
