<svg width="18" height="18" viewBox="0 0 18 18" fill="none" xmlns="http://www.w3.org/2000/svg">
<path d="M14.4223 11.4453L12.5173 11.2278C12.2933 11.2015 12.0662 11.2263 11.8532 11.3003C11.6402 11.3744 11.4467 11.4958 11.2873 11.6553L9.90729 13.0353C7.77833 11.9523 6.04783 10.2218 4.96479 8.09281L6.35229 6.70531C6.67479 6.38281 6.83229 5.93281 6.77979 5.47531L6.56229 3.58531C6.51992 3.21938 6.34439 2.88183 6.06913 2.63701C5.79388 2.39219 5.43816 2.25721 5.06979 2.25781H3.77229C2.92479 2.25781 2.21979 2.96281 2.27229 3.81031C2.66979 10.2153 7.79229 15.3303 14.1898 15.7278C15.0373 15.7803 15.7423 15.0753 15.7423 14.2278V12.9303C15.7498 12.1728 15.1798 11.5353 14.4223 11.4453Z" fill="#EB6535"/>
</svg>
