<svg width="16" height="16" viewBox="0 0 16 16" fill="none" xmlns="http://www.w3.org/2000/svg">
<path d="M4.00391 7.94996C4.00391 5.82036 4.00391 3.69277 4.00391 1.56317C4.00391 0.332249 4.31218 0.016012 5.51923 0C7.71182 0 9.90707 0 12.105 0C13.3921 0 14.9755 1.6012 14.9995 2.89217C14.9995 3.32449 15.0155 3.75882 14.9995 4.18914C14.9835 4.61946 14.9995 4.99975 15.53 5.20991C15.9303 5.36402 15.9984 5.82437 16.0004 6.24068C16.0004 9.06947 16.0004 11.8969 16.0004 14.723C16.0004 15.5837 15.548 15.992 14.6973 15.99H5.31305C4.40426 16 4.00391 15.5296 4.00391 14.637C4.00391 12.4093 4.00391 10.1796 4.00391 7.94996ZM9.52474 6.0045H11.3263C13.6744 6.0045 13.6744 6.0045 13.5463 3.67876C13.5442 3.64543 13.5442 3.61201 13.5463 3.57868C13.5843 3.16237 13.4161 2.96622 12.9758 2.99825C12.3332 3.04628 11.9388 2.7981 12.0149 2.08556C12.065 1.6012 11.8468 1.45509 11.3824 1.4611C9.65485 1.47911 7.92734 1.48311 6.19983 1.4611C5.61932 1.4611 5.45117 1.69127 5.46518 2.23368C5.49321 3.23443 5.50322 4.23518 5.46518 5.22392C5.44116 5.82437 5.62132 6.04854 6.24587 6.02452C7.33082 5.97248 8.42978 6.0045 9.52474 6.0045ZM8.98627 8.91469C9.14641 8.15812 8.70202 8.01801 8.01542 7.98399C7.20271 7.94196 6.99252 8.28822 6.98251 9.03878C6.9725 9.78934 7.28678 9.9995 7.98339 10.0215C8.7921 10.0475 9.10037 9.7333 8.98627 8.91469ZM12.9898 8.99675C13.1099 8.27821 12.7996 7.996 12.057 7.98199C11.3143 7.96798 10.986 8.18214 10.974 8.98274C10.962 9.78334 11.2903 10.0035 12.0389 10.0115C12.7876 10.0195 13.0819 9.72729 12.9938 9.00675L12.9898 8.99675ZM8.98627 12.9517C9.12839 12.2672 8.7981 12.005 8.06346 11.983C7.32882 11.961 6.98852 12.1831 6.97651 12.9837C6.9645 13.7843 7.28878 14.0085 8.03944 14.0165C8.79009 14.0245 9.08235 13.7303 8.98827 12.9517H8.98627ZM12.0389 13.9905C12.8176 14.1206 12.9918 13.7103 13.0218 13.0158C13.0578 12.2052 12.7175 11.991 11.9649 11.979C11.2122 11.967 11.004 12.2832 10.982 12.9797C10.958 13.7883 11.2683 14.0986 12.0389 13.9905Z" fill="#F16431"/>
<path d="M0 9.90179C0 8.40667 0 6.90354 0 5.40442C0.0120105 4.33162 0.362317 4.01738 1.47129 4.00337C2.58026 3.98936 2.98261 4.3076 2.98861 5.35638C3.00596 8.45204 3.00596 11.5497 2.98861 14.6494C2.98861 15.6821 2.58826 16.0004 1.46929 16.0004C0.376329 16.0004 0.0140123 15.6741 0 14.5993C0 13.0321 0 11.467 0 9.90179Z" fill="#F16431"/>
</svg>
